<?xml version="1.0" encoding="iso-8859-1"?>
<!-- Uploaded to: SVG Repo, www.svgrepo.com, Generator: SVG Repo Mixer Tools -->
<svg height="800px" width="800px" version="1.1" id="Capa_1" xmlns="http://www.w3.org/2000/svg" xmlns:xlink="http://www.w3.org/1999/xlink" 
	 viewBox="0 0 19.625 19.625" xml:space="preserve">
<g>
	<path style="fill:#010002;" d="M18.73,2.645c-0.818-1.074-2.117-1.692-3.969-1.889C14.612,0.74,14.455,0.73,14.295,0.73
		c-1.604,0-3.423,0.777-4.483,2.248c-1.06-1.47-2.877-2.247-4.481-2.247c-0.158,0-0.315,0.009-0.465,0.025
		c-1.852,0.197-3.151,0.815-3.97,1.889c-0.81,1.062-1.074,2.516-0.778,4.324c0.719,4.385,8.838,11.425,9.183,11.723
		c0.158,0.135,0.352,0.203,0.546,0.203c0.196,0,0.393-0.068,0.55-0.206c0.342-0.298,8.394-7.336,9.11-11.721
		C19.803,5.163,19.542,3.708,18.73,2.645z M18.349,7.647c0,0-0.314-4.707-4.497-5.334C13.853,2.313,18.873,1.581,18.349,7.647z"/>
</g>
</svg>