<?xml version="1.0" encoding="iso-8859-1"?>
<!-- Uploaded to: SVG Repo, www.svgrepo.com, Generator: SVG Repo Mixer Tools -->
<svg fill="#000000" height="800px" width="800px" version="1.1" id="Layer_1" xmlns="http://www.w3.org/2000/svg" xmlns:xlink="http://www.w3.org/1999/xlink" 
	 viewBox="0 0 504.065 504.065" xml:space="preserve">
<g>
	<g>
		<path d="M458.618,147.924c-14.663-38.115-37.729-73.669-66.719-102.811C351.887,4.892,311.389-9.083,277.815,5.806
			c-4.09,1.814-7.999,4.125-11.844,6.981c-11.965-6.397-25.42-10.129-37.979-11.579C184.758-3.802,135.774,17.03,97.139,56.924
			c-31.526,32.55-53.919,76.792-64.781,127.958c-1.309,6.136-2.451,12.431-3.391,18.709c-1.721,11.432-2.854,23.048-3.366,34.531
			C21.463,331.239,57.958,448.378,148.8,500.19c1.729,0.99,3.483,1.947,5.246,2.879c0.008,0.008,0.025,0.008,0.034,0.017
			c1.251,0.663,2.585,0.974,3.911,0.974c3.013,0,5.926-1.62,7.428-4.474c1.67-3.148,1.125-6.874-1.074-9.417
			c-1.813-4.818-4.398-23.443-4.801-28.722c-0.694-9.007-1.094-18.144-1.23-27.389c5.862,4.707,11.934,9.081,18.042,13.276v48.338
			c0,4.633,3.76,8.393,8.393,8.393s8.393-3.76,8.393-8.393v-37.021l2.493,1.676c3.181,2.149,6.287,4.449,9.384,6.74
			c13.438,9.938,27.329,20.211,46.877,20.211s33.439-10.274,46.877-20.211c3.097-2.291,6.203-4.591,9.384-6.74l8.016-5.389
			c2.368-1.583,4.751-3.182,7.136-4.794c-11.555,16.217-21.283,26.685-24.134,29.648c-3.013,3.139-3.131,8.066-0.26,11.34
			c1.645,1.888,3.97,2.871,6.32,2.871c1.721,0,3.458-0.529,4.944-1.612c3.55-2.594,15.066-8.469,21.957-11.986
			c4.264-2.174,7.646-3.92,8.763-4.616c51.536-31.979,116.493-88.047,133.305-173.526
			C483.765,253.715,478.225,198.898,458.618,147.924z M42.371,238.869c0.487-10.903,1.561-21.924,3.19-32.776
			c0.898-5.943,1.964-11.852,3.215-17.719c10.206-48.078,31.098-89.491,60.416-119.766c31.685-32.718,70.455-51.351,105.808-51.351
			c3.735,0,7.428,0.21,11.071,0.63c26.448,3.055,57.856,17.945,59.333,49.849c0.974,21.168-10.055,35.672-29.436,53.567
			c-18.667,17.24-35.261,36.847-49.311,58.276c-21.949,33.456-38.333,72.293-48.674,115.427
			c-14.118,58.779-19.221,115.217-15.175,167.735c0.369,4.801,0.89,9.955,1.612,14.915C69.021,425.984,38.661,322.35,42.371,238.869
			z M344.947,412.324c-11.39,10.802-24.97,19.884-38.106,28.655l-8.1,5.447c-3.374,2.283-6.664,4.717-9.946,7.143
			c-11.768,8.704-22.889,16.921-36.898,16.921s-25.13-8.217-36.898-16.921c-3.282-2.426-6.572-4.86-9.946-7.143l-8.1-5.447
			c-13.136-8.771-26.716-17.853-38.106-28.655l-0.372,0.391c1.119-36.47,6.41-74.566,15.824-113.792
			c9.904-41.245,25.508-78.302,46.391-110.139c13.304-20.279,28.999-38.836,46.668-55.145c2.991-2.763,6.011-5.634,8.959-8.642
			c39.776,34.071,86.344,87.01,96.034,153.536c7.557,51.891-7.79,99.092-26.433,134.813L344.947,412.324z M457.737,299.031
			c-14.873,75.617-71.034,126.993-118.381,157.847c27.144-38.685,60.76-104.163,49.605-180.761
			c-10.425-71.577-59.641-127.795-101.632-163.792c9.18-12.245,15.699-26.841,14.844-45.362
			c-0.882-19.054-9.287-33.472-21.255-43.935c1.223-0.694,2.455-1.324,3.703-1.878c36.092-16.006,75.247,15.561,95.375,35.798
			c27.363,27.505,49.127,61.045,62.951,96.995C461.43,202.012,466.684,253.539,457.737,299.031z"/>
	</g>
</g>
</svg>