<?xml version="1.0" encoding="iso-8859-1"?>
<!-- Uploaded to: SVG Repo, www.svgrepo.com, Generator: SVG Repo Mixer Tools -->
<svg fill="#000000" height="800px" width="800px" version="1.1" id="Layer_1" xmlns="http://www.w3.org/2000/svg" xmlns:xlink="http://www.w3.org/1999/xlink" 
	 viewBox="0 0 512.001 512.001" xml:space="preserve">
<g>
	<g>
		<path d="M447.413,191.431c-4.308,0-8.555,0.551-12.657,1.623c-9.805-36.527-30.493-68.978-59.613-93.429
			c1.315-2.167,2.437-4.466,3.304-6.906c3.492-9.872,5.262-21.296,5.262-33.955c0-12.668-1.77-24.096-5.266-33.976
			c-3.697-10.429-11.796-18.612-22.219-22.456c-10.512-3.878-22.101-2.889-31.796,2.71l-36.491,21.074
			c-8.888-9.459-21.374-15.024-34.717-15.024c-12.364,0-23.972,4.729-32.696,12.988l-32.958-19.04
			c-9.702-5.598-21.298-6.583-31.809-2.704c-10.419,3.843-18.514,12.027-22.215,22.46c-3.492,9.872-5.262,21.3-5.262,33.967
			c0,12.659,1.77,24.084,5.267,33.968c0.867,2.442,1.988,4.745,3.304,6.912c-29.104,24.442-49.787,56.882-59.6,93.405
			c-4.098-1.07-8.346-1.619-12.662-1.619c-27.519,0-49.908,22.389-49.908,49.908c0,27.519,22.389,49.908,49.908,49.908
			c4.317,0,8.569-0.551,12.67-1.625c13.502,50.289,47.258,91.351,91.375,114.959c-44.281,9.188-77.662,48.498-77.662,95.464
			c0,6.601,5.353,11.954,11.954,11.954h231.453c6.601,0,11.954-5.353,11.954-11.954s-5.353-11.954-11.954-11.954H115.864
			c5.729-34.91,36.096-61.636,72.602-61.636h8.706c5.557,27.395,29.824,48.08,58.834,48.08c29.01,0,53.276-20.685,58.834-48.08
			h8.706c19.655,0,38.134,7.654,52.034,21.554c13.9,13.9,21.554,32.38,21.554,52.034c0,6.601,5.353,11.954,11.954,11.954
			s11.954-5.353,11.954-11.954c0-26.04-10.141-50.525-28.558-68.941c-13.644-13.644-30.624-22.732-49.095-26.533
			c44.11-23.61,77.861-64.669,91.365-114.95c4.101,1.072,8.349,1.623,12.657,1.623c27.519,0,49.908-22.389,49.908-49.908
			C497.32,213.816,474.932,191.431,447.413,191.431z M64.588,267.339c-14.336,0-26-11.663-26-26c0-14.336,11.663-26,26-26
			c2.731,0,5.403,0.429,7.945,1.241c-1.089,8.182-1.645,16.476-1.645,24.759c0,8.298,0.558,16.591,1.65,24.753
			C69.992,266.907,67.318,267.339,64.588,267.339z M299.437,47.088l36.947-21.339c3.525-2.036,7.743-2.392,11.571-0.981
			c3.794,1.399,6.619,4.245,7.952,8.004c2.584,7.304,3.895,16.051,3.895,25.994c0,9.937-1.31,18.678-3.889,25.968
			c-0.949,2.672-2.681,4.926-4.981,6.498c-4.389,2.984-9.962,3.194-14.549,0.539l-36.946-21.326
			c0.961-3.807,1.456-7.735,1.456-11.678C300.893,54.824,300.399,50.896,299.437,47.088z M233.258,45.906
			c4.393-6.828,11.857-10.904,19.963-10.904c8.742,0,16.759,4.788,20.921,12.494c0,0.001,0.001,0.001,0.001,0.002
			c1.886,3.491,2.843,7.281,2.843,11.268s-0.956,7.777-2.841,11.265c-4.164,7.702-12.181,12.487-20.923,12.487
			c-8.106,0-15.57-4.074-19.985-10.926c-2.466-3.804-3.768-8.239-3.768-12.827C229.468,54.178,230.771,49.742,233.258,45.906z
			 M156.077,32.78c1.336-3.767,4.16-6.612,7.953-8.012c3.832-1.413,8.056-1.055,11.582,0.979l32.196,18.6
			c-1.469,4.629-2.25,9.479-2.25,14.418c0,4.941,0.781,9.792,2.247,14.417l-32.186,18.586c-4.488,2.589-9.916,2.453-14.259-0.329
			c-0.099-0.073-0.2-0.142-0.301-0.212c-2.311-1.57-4.034-3.813-4.981-6.479c-2.584-7.304-3.895-16.046-3.895-25.982
			C152.186,48.822,153.496,40.076,156.077,32.78z M256.006,450.629c-15.73,0-29.137-10.111-34.083-24.172h68.166
			C285.143,440.518,271.736,450.629,256.006,450.629z M414.566,270.605c-0.004,0.021-0.007,0.044-0.011,0.066
			c-0.004,0.017-0.006,0.033-0.008,0.05c-14.066,76.387-80.742,131.828-158.541,131.828c-77.812,0-144.486-55.446-158.542-131.849
			c-0.004-0.019-0.006-0.038-0.01-0.057c-0.005-0.026-0.008-0.051-0.013-0.078c-1.755-9.545-2.647-19.377-2.647-29.226
			c0-9.832,0.889-19.676,2.639-29.256c0.001-0.006,0.001-0.012,0.002-0.017c0.007-0.036,0.012-0.073,0.019-0.109
			c7.074-38.408,27.655-72.528,58.232-96.826c4.209,1.547,8.648,2.339,13.097,2.339c6.493,0,12.995-1.657,18.787-4.996
			l32.959-19.032c6.644,6.285,14.947,10.517,23.982,12.181c-5.139,23.928-26.447,41.923-51.886,41.923
			c-6.601,0-11.954,5.353-11.954,11.954c0,6.601,5.353,11.954,11.954,11.954c30.408,0,56.749-17.725,69.249-43.383
			c7.379,5.918,16.734,9.47,26.907,9.47c6.601,0,11.954-5.353,11.954-11.954c0-6.601-5.353-11.954-11.954-11.954
			c-7.598,0-14.158-4.452-17.259-10.871c6.189-2.574,11.785-6.434,16.412-11.353l36.491,21.063c5.783,3.342,12.277,5.002,18.766,5
			c4.454,0,8.903-0.797,13.123-2.353c30.585,24.305,51.165,58.427,58.231,96.841c0.002,0.013,0.005,0.026,0.007,0.039
			c0.005,0.024,0.008,0.048,0.012,0.072c1.758,9.567,2.651,19.413,2.651,29.266S416.326,261.036,414.566,270.605z M447.413,267.339
			c-2.721,0-5.39-0.43-7.937-1.247c1.093-8.169,1.65-16.461,1.65-24.753c0-8.294-0.558-16.586-1.65-24.754
			c2.546-0.815,5.216-1.246,7.937-1.246c14.336,0,26,11.663,26,26C473.413,255.675,461.749,267.339,447.413,267.339z"/>
	</g>
</g>
<g>
	<g>
		<path d="M185.239,186.47c-17.64,0-32.619,11.61-37.698,27.59h-11.218c-6.601,0-11.954,5.353-11.954,11.954
			c0,6.601,5.353,11.954,11.954,11.954h21.326c6.601,0,11.954-5.353,11.954-11.954c0-8.621,7.015-15.636,15.636-15.636
			c8.621,0,15.636,7.015,15.636,15.636c0,6.601,5.353,11.954,11.954,11.954c6.601,0,11.954-5.353,11.954-11.954
			C224.782,204.21,207.043,186.47,185.239,186.47z"/>
	</g>
</g>
<g>
	<g>
		<path d="M375.677,214.06h-11.206c-5.079-15.98-20.058-27.59-37.698-27.59c-21.811,0-39.556,17.74-39.556,39.544
			c0,6.601,5.353,11.954,11.954,11.954c6.601,0,11.954-5.353,11.954-11.954c0-8.621,7.019-15.636,15.648-15.636
			c8.621,0,15.636,7.015,15.636,15.636c0,6.601,5.353,11.954,11.954,11.954h21.314c6.601,0,11.954-5.353,11.954-11.954
			C387.631,219.413,382.28,214.06,375.677,214.06z"/>
	</g>
</g>
<g>
	<g>
		<path d="M294.879,290.944c-5.684-3.367-13.013-1.489-16.379,4.188c-3.581,6.043-9.695,10.435-16.774,12.048
			c-7.135,1.628-14.304,0.371-20.176-3.538c-3.275-2.184-6.061-5.121-8.052-8.493c-3.358-5.684-10.687-7.569-16.372-4.213
			c-5.684,3.358-7.57,10.688-4.213,16.372c3.81,6.449,9.127,12.06,15.386,16.232c8.11,5.397,17.725,8.216,27.489,8.216
			c3.756,0,7.536-0.418,11.257-1.267c13.441-3.066,25.113-11.51,32.022-23.166C302.433,301.644,300.557,294.312,294.879,290.944z"/>
	</g>
</g>
<g>
	<g>
		<path d="M373.027,488.093h-4.981c-6.601,0-11.954,5.353-11.954,11.954c0,6.601,5.353,11.954,11.954,11.954h4.981
			c6.601,0,11.954-5.353,11.954-11.954C384.981,493.446,379.629,488.093,373.027,488.093z"/>
	</g>
</g>
</svg>