<?xml version="1.0" encoding="iso-8859-1"?>
<!-- Uploaded to: SVG Repo, www.svgrepo.com, Generator: SVG Repo Mixer Tools -->
<!DOCTYPE svg PUBLIC "-//W3C//DTD SVG 1.1//EN" "http://www.w3.org/Graphics/SVG/1.1/DTD/svg11.dtd">
<svg fill="#000000" version="1.1" id="Capa_1" xmlns="http://www.w3.org/2000/svg" xmlns:xlink="http://www.w3.org/1999/xlink" 
	 width="800px" height="800px" viewBox="0 0 487.291 487.291"
	 xml:space="preserve">
<g>
	<g id="Layer_2_34_">
		<g>
			<path d="M368.923,333.912c-17.429-6.286-47.769-24.4-52.966-27.198c-1.348-0.782-2.907-1.239-4.58-1.239
				c-3.646,0-6.784,2.144-8.247,5.236c-14.37,24.059-41.011,94.018-59.602,95.312c-18.591-1.295-45.231-71.254-59.603-95.312
				c-1.462-3.094-4.601-5.236-8.248-5.236c-1.671,0-3.231,0.457-4.579,1.239c-5.197,2.798-35.536,20.912-52.965,27.198
				c-58.503,21.095-84.814,42.607-84.814,57.277c0,14.652,0,96.102,0,96.102h210.209h210.209c0,0,0-81.449,0-96.102
				C453.737,376.52,427.425,355.006,368.923,333.912z"/>
			<path d="M456.888,254.977c-26.866-61.374,16.789-102.448-92.743-137.974c2.173-56.566-51.22-117.002-115.801-117.002
				c-0.549,0-1.092,0.031-1.629,0.037c-0.152,0-0.303-0.006-0.457-0.01v-0.01c-0.24,0-0.482-0.018-0.726-0.018
				c-0.077,0-0.149,0.004-0.225,0.004S245.159,0,245.082,0c-0.199,0-0.397,0.01-0.597,0.012C244.288,0.01,244.087,0,243.888,0
				c-0.076,0-0.149,0.004-0.225,0.004c-0.005,0-0.011,0-0.016,0s-0.011,0-0.016,0c-0.075,0-0.148-0.004-0.225-0.004
				c-0.198,0-0.398,0.01-0.597,0.012C242.611,0.01,242.413,0,242.213,0c-0.077,0-0.15,0.004-0.226,0.004
				c-0.074,0-0.147-0.004-0.225-0.004c-0.242,0-0.484,0.018-0.726,0.018v0.01c-0.153,0.004-0.304,0.01-0.456,0.01
				c-0.538-0.006-1.08-0.037-1.629-0.037c-64.581,0-117.974,60.436-115.801,117.002c-109.532,35.525-65.877,76.6-92.743,137.974
				c-0.694,1.469-1.095,3.104-1.095,4.836c0,6.26,5.074,11.334,11.333,11.334c1.24,0,2.431-0.207,3.548-0.574
				c81.648-21.502,79.571-58.436,93.85-82.234c-0.313,7.037-0.227,14.424,0.338,22.213c0,39.178,49.795,81.938,103.455,81.938
				c0.328,0,0.646-0.028,0.972-0.028c0.28,0,0.557,0.021,0.837,0.024c0.28-0.006,0.557-0.024,0.837-0.024
				c0.325,0,0.645,0.028,0.973,0.028c53.659,0,103.454-42.76,103.454-81.938c0.564-7.789,0.65-15.176,0.338-22.213
				c14.278,23.799,12.201,60.732,93.851,82.234c1.117,0.367,2.308,0.574,3.548,0.574c6.259,0,11.333-5.074,11.333-11.334
				C457.982,258.08,457.582,256.445,456.888,254.977z"/>
		</g>
	</g>
</g>
</svg>