<?xml version="1.0" encoding="iso-8859-1"?>
<!-- Uploaded to: SVG Repo, www.svgrepo.com, Generator: SVG Repo Mixer Tools -->
<svg fill="#000000" height="800px" width="800px" version="1.1" id="Layer_1" xmlns="http://www.w3.org/2000/svg" xmlns:xlink="http://www.w3.org/1999/xlink" 
	 viewBox="0 0 512.004 512.004" xml:space="preserve">
<g>
	<g>
		<path d="M484.139,328.385c-1.141-2.308-3.216-4.015-5.695-4.689c-27.001-7.393-44.481-20.435-51.973-38.759
			c-16.752-40.987,18.1-100.738,29.561-120.374c1.419-2.434,2.551-4.392,3.315-5.803c5.632-10.384,8.515-22.968,7.716-33.675
			C457.497-2.681,342.153,0.004,341.336,0.004c-75.138,0-102.418,31.474-111.832,49.125c-17.686-4.563-30.765-4.267-33.046-4.168
			l-15.36,0.009c-2.093-0.108-51.928-2.371-94.828,38.22c-9.09,8.605-17.103,18.486-24.118,29.507
			c-0.108,0.162-0.216,0.314-0.314,0.476c-3.44,5.443-6.611,11.183-9.548,17.21c-0.252,0.512-0.521,1.033-0.773,1.554
			c-2.74,5.758-5.246,11.785-7.518,18.055c-0.35,0.934-0.692,1.859-1.024,2.803c-2.093,6.009-3.979,12.261-5.668,18.719
			c-0.368,1.419-0.728,2.838-1.078,4.267c-1.5,6.18-2.829,12.557-3.961,19.142c-0.35,1.976-0.665,3.988-0.979,6
			c-0.952,6.252-1.77,12.656-2.407,19.249c-0.26,2.668-0.467,5.389-0.674,8.111c-0.476,6.207-0.844,12.522-1.033,19.025
			c-0.045,1.365-0.189,2.623-0.216,4.006c-0.009,0.386,0.09,0.746,0.135,1.123c-0.063,3.018-0.144,6-0.144,9.072
			c0,61.359,6.027,123.85,49.736,165.34c7.042,6.683,14.623,12.656,22.366,18.27v57.901c0,4.958,4.024,8.982,8.982,8.982
			c4.967,0,8.982-4.024,8.982-8.982v-45.478l1.976,1.312c0.269,0.189,0.557,0.377,0.826,0.566l8.596,5.776
			c3.404,2.308,6.728,4.761,10.042,7.213c14.381,10.635,29.256,21.63,50.176,21.63c20.92,0,35.795-10.995,50.176-21.63
			c3.315-2.452,6.638-4.904,10.033-7.213l8.605-5.776c0.117-0.09,0.251-0.171,0.368-0.252c0.979-0.656,1.949-1.302,2.919-1.958
			v45.811c0,4.958,4.024,8.982,8.982,8.982c4.967,0,8.982-4.024,8.982-8.982v-58.251c7.581-5.506,14.983-11.372,21.881-17.92
			c16.411-15.576,27.504-34.106,34.969-54.434c23.399,15.459,45.613,23.283,66.335,23.283c7.402,0,14.596-0.979,21.612-2.964
			c42.029-11.902,60.138-55.143,60.892-56.976C485.36,333.37,485.262,330.693,484.139,328.385z M322.41,355.063
			c-0.018,0.072,0.009,0.144-0.009,0.207c-6.44,21.944-16.95,42.191-34.187,58.557c-8.012,7.599-17.049,14.363-26.283,20.794
			c-4.815,3.35-9.665,6.656-14.543,9.908l-8.623,5.794c-3.602,2.443-7.123,5.048-10.635,7.644
			c-12.593,9.315-24.495,18.109-39.496,18.109c-15.001,0-26.902-8.794-39.496-18.109c-3.512-2.596-7.033-5.201-10.635-7.644
			l-8.515-5.722c-4.86-3.252-9.692-6.53-14.489-9.863c-9.288-6.467-18.387-13.267-26.444-20.911
			c-40.726-38.669-44.14-98.897-44.14-152.315c0-1.904,0.063-3.746,0.081-5.623c9.683-7.006,40.69-26.561,90.103-30.459
			c24.702-1.949,45.819-6.638,64.566-14.336c18.917-7.77,31.519-27.064,44.858-47.472l2.12-3.252
			c5.641-8.605,14.731-14.462,24.926-16.061c9.89-1.536,19.501,0.979,27.1,7.132c10.195,8.228,18.755,19.142,25.447,32.436h0.009
			c5.3,22.995,7.464,45.945,8.048,65.563c0.099,3.979,0.18,7.976,0.18,12.072C332.353,290.883,331.176,324.963,322.41,355.063z"/>
	</g>
</g>
</svg>