<?xml version="1.0" encoding="iso-8859-1"?>
<!-- Uploaded to: SVG Repo, www.svgrepo.com, Generator: SVG Repo Mixer Tools -->
<svg height="800px" width="800px" version="1.1" id="Capa_1" xmlns="http://www.w3.org/2000/svg" xmlns:xlink="http://www.w3.org/1999/xlink" 
	 viewBox="0 0 17.985 17.985" xml:space="preserve">
<g>
	<g>
		<path style="fill:#010002;" d="M4.38,13.764c-0.001,0.008-0.003,0.014-0.005,0.02c0.004-0.002,0.008-0.005,0.01-0.007
			c-0.002,0.002-0.005,0.005-0.01,0.008c-0.019,0.013-0.037,0.022-0.054,0.032C4.339,13.802,4.36,13.785,4.38,13.764z
			 M14.621,14.173c-0.234-0.021-0.416-0.06-0.561-0.103c-0.041-0.013-0.078-0.025-0.111-0.037c-0.001,0-0.001,0-0.002,0
			c-0.104-0.038-0.178-0.077-0.235-0.11c0.001,0.002,0.002,0.003,0.005,0.005c0.056,0.043,0.168,0.11,0.352,0.171
			c0.024,0.009,0.048,0.017,0.077,0.026c0.014,0.148,0.016,0.29,0.024,0.369c0.084,0.691-0.997,0.709-0.997,0.709
			c-0.545,0.186-0.4,0.499-0.4,0.499c0.285,0.624-0.539,0.752-0.539,0.752c-0.688,0.162-0.601,0.583-0.542,0.74l-0.08-0.057
			c0.001,0.001,0.001,0.004,0.002,0.004l-0.137-0.095l0.416,0.292c0.955,0.867,2.167,0.608,2.167,0.608
			c1.302-0.086,2.037-1.691,2.037-1.691C16.617,14.564,15.256,14.235,14.621,14.173z M11.051,16.751l-1.504-1.058
			c0,0-0.086-0.026-0.218-0.05l0.001,0.008c-0.037-0.011-0.074-0.019-0.113-0.026c-0.083-0.012-0.177-0.02-0.276-0.021
			c-0.099,0.002-0.193,0.01-0.277,0.021c-0.037,0.008-0.077,0.015-0.113,0.026l0.001-0.008c-0.132,0.023-0.219,0.05-0.219,0.05
			l-1.499,1.055c0.057-0.168,0.116-0.568-0.548-0.724c0,0-0.825-0.126-0.537-0.752c0,0,0.163-0.395-0.402-0.498
			c-0.301-0.055-1.18-0.037-0.998-0.71c0,0,0.063-0.177,0.107-0.347c-0.001,0-0.001,0-0.001,0c0.571-0.562,1.191-2.751,1.191-2.751
			C6.08,9.709,5.095,9.159,5.095,9.159L3.926,8.718c0.002,0,0.002-0.001,0.005-0.002l0.074,0.029C4.14,8.699,4.24,8.651,4.24,8.651
			c0.67-0.112,0.222-1.174,0.222-1.174C4.405,6.919,4.741,6.919,4.741,6.919c0.67,0,0.446-0.783,0.446-0.783
			c-0.118-0.585,0.174-0.734,0.362-0.77L5.464,5.339c0.083-0.017,0.147-0.011,0.147-0.011L5.61,5.316l0.752,0.228
			C5.86,4.957,5.556,4.193,5.556,3.359C5.556,1.503,7.06,0,8.915,0s3.36,1.503,3.36,3.357c0,0.871-0.33,1.663-0.873,2.26
			l0.973-0.292c0.128,0.001,0.619,0.05,0.474,0.782c0,0-0.225,0.783,0.448,0.783c0,0,0.334,0,0.28,0.558
			c0,0-0.448,1.063,0.223,1.174c0,0,0.115,0.056,0.263,0.105l0.674-0.253c0-0.001,0-0.001,0-0.002l0.1-0.038
			c-0.06-0.274-0.379-0.186-0.379-0.186c-0.67-0.112-0.222-1.173-0.222-1.173c0.056-0.559-0.28-0.559-0.28-0.559
			c-0.67,0-0.446-0.782-0.446-0.782c0.081-0.407-0.035-0.603-0.176-0.697l0.903-0.271c1.691-0.174,1.994,1.387,1.994,1.387
			c0.262,0.697-0.12,1.805-0.676,2.014l-2.629,0.991L12.64,9.265c-0.256,0.213-0.73,0.759-0.404,1.7c0,0,0.624,2.198,1.197,2.755
			c0.044,0.169,0.104,0.343,0.104,0.343c0.182,0.673-0.698,0.655-0.997,0.71c-0.565,0.103-0.402,0.498-0.402,0.498
			c0.287,0.625-0.537,0.752-0.537,0.752C10.931,16.182,10.994,16.582,11.051,16.751z M7.546,2.261c0,0.156,0.074,0.294,0.185,0.385
			c0.086,0.07,0.194,0.113,0.313,0.113c0.276,0,0.5-0.224,0.5-0.498c0-0.191-0.107-0.354-0.266-0.438
			C8.209,1.786,8.129,1.762,8.044,1.762C7.769,1.762,7.546,1.985,7.546,2.261z M10.531,4.233c0-0.106-0.026-0.208-0.075-0.304
			c-0.011,0.021-0.026,0.04-0.038,0.059c-0.011-0.038-0.024-0.075-0.042-0.111C10.179,4.268,9.617,4.55,8.952,4.55
			c-0.395,0-0.752-0.103-1.018-0.265C7.792,4.197,7.677,4.092,7.596,3.976C7.575,3.943,7.551,3.911,7.534,3.878
			C7.486,3.972,7.46,4.075,7.46,4.18c0,0.28,0.179,0.53,0.469,0.707c0.274,0.196,0.668,0.32,1.108,0.32
			C9.861,5.208,10.531,4.772,10.531,4.233z M10.669,2.261c0-0.191-0.108-0.354-0.265-0.438c-0.086-0.07-0.196-0.114-0.315-0.114
			c-0.276,0-0.498,0.223-0.498,0.499c0,0.19,0.108,0.353,0.265,0.438c0.086,0.07,0.194,0.113,0.313,0.113
			C10.444,2.759,10.669,2.535,10.669,2.261z M6.28,17.134l-0.078,0.053c0.06-0.16,0.141-0.577-0.543-0.738
			c0,0-0.825-0.126-0.538-0.75c0,0,0.144-0.313-0.401-0.499c0,0-1.081-0.018-0.997-0.709c0.011-0.079,0.013-0.222,0.025-0.371
			c0.026-0.008,0.049-0.016,0.074-0.024c0.168-0.056,0.274-0.116,0.334-0.159c0.003-0.002,0.008-0.005,0.011-0.008
			c-0.075,0.044-0.183,0.096-0.343,0.143c-0.144,0.043-0.329,0.08-0.561,0.103c-0.636,0.062-1.995,0.39-1.475,2.081
			c0,0,0.736,1.605,2.039,1.691c0,0,1.213,0.261,2.167-0.609l0.286-0.2C6.279,17.138,6.279,17.135,6.28,17.134z M4.167,13.928
			c0.07-0.041,0.11-0.075,0.125-0.09c-0.02,0.016-0.043,0.029-0.065,0.038C4.227,13.876,4.21,13.897,4.167,13.928z M13.66,13.881
			c-0.02-0.01-0.043-0.023-0.062-0.038c0.017,0.016,0.053,0.046,0.112,0.08C13.676,13.899,13.66,13.881,13.66,13.881z
			 M13.512,13.773c0.001,0.007,0.002,0.011,0.004,0.016c0.016,0.012,0.03,0.019,0.046,0.027
			C13.546,13.803,13.529,13.789,13.512,13.773z M3.223,8.453c0.074-0.249,0.376-0.164,0.376-0.164
			c0.672-0.111,0.224-1.174,0.224-1.174C3.767,6.556,4.101,6.556,4.101,6.556c0.672,0,0.448-0.782,0.448-0.782
			C4.461,5.338,4.6,5.145,4.755,5.059L3.782,4.766C2.09,4.592,1.787,6.153,1.787,6.153C1.524,6.85,1.907,7.957,2.463,8.168
			L3.223,8.453C3.223,8.453,3.223,8.453,3.223,8.453L3.223,8.454l0.704,0.265V8.718V8.717L3.223,8.453z M13.516,13.791v-0.002
			l-0.007-0.004L13.516,13.791z M13.598,13.843c-0.004-0.003-0.009-0.007-0.011-0.011c-0.001,0-0.002,0-0.002,0
			c-0.002-0.003-0.004-0.006-0.004-0.006c-0.005-0.002-0.01-0.005-0.015-0.008c0.01,0.008,0.019,0.016,0.03,0.023
			C13.597,13.843,13.598,13.843,13.598,13.843z M13.566,13.819c-0.002-0.001-0.004-0.002-0.005-0.003
			C13.563,13.817,13.563,13.818,13.566,13.819L13.566,13.819z M4.313,13.822c0.002-0.002,0.005-0.003,0.008-0.005
			c-0.002,0.001-0.003,0.001-0.004,0.002C4.316,13.82,4.315,13.821,4.313,13.822z M4.298,13.833c-0.001,0-0.001,0.002-0.001,0.002
			c-0.002,0.001-0.005,0.003-0.006,0.005c0-0.001,0-0.001,0.002-0.001c0.006-0.006,0.014-0.011,0.02-0.016
			c-0.004,0.002-0.008,0.005-0.011,0.007C4.303,13.828,4.301,13.83,4.298,13.833z"/>
	</g>
</g>
</svg>